<svg version="1.1" id="Layer_1" xmlns="http://www.w3.org/2000/svg" xmlns:xlink="http://www.w3.org/1999/xlink" x="0px" y="0px"
	 width="100%" viewBox="0 0 4518 998" enable-background="new 0 0 4518 998" xml:space="preserve">
<path fill="#FEFEFE" opacity="1.000000" stroke="none" 
	d="
M2.000000,900.000000 
	C2.000000,634.619995 2.000000,369.240051 2.923566,103.080315 
	C6.513387,102.310394 9.179643,102.328819 11.845899,102.328819 
	C1508.473145,102.330048 3005.100342,102.330032 4501.727539,102.330017 
	C4503.394043,102.330017 4505.067871,102.428909 4506.725098,102.305199 
	C4508.910645,102.142021 4511.083496,101.804062 4513.661133,101.493111 
	C4513.661133,97.227844 4513.648926,93.599762 4513.662598,89.971786 
	C4513.771973,60.647846 4513.887207,31.323927 4514.000000,2.000000 
	C4515.998047,2.000000 4517.996094,2.000000 4519.997070,2.000000 
	C4520.000000,300.713318 4520.000000,599.426636 4519.097656,899.217529 
	C4517.195801,900.303589 4516.195801,900.319702 4515.196289,900.319702 
	C3013.789062,900.320984 1512.381592,900.321350 10.974314,900.308228 
	C7.982874,900.308167 4.991437,900.107178 2.000000,900.000000 
M783.666138,533.000122 
	C783.666138,405.117981 783.666138,277.235840 783.666138,148.870285 
	C749.938660,148.870285 717.159729,148.870285 683.421143,148.870285 
	C683.421143,325.438080 683.421143,501.465179 683.421143,677.492310 
	C675.960022,671.041016 669.880066,664.189148 664.491638,656.830872 
	C604.782410,575.294312 544.916504,493.870331 485.621979,412.032715 
	C423.592072,326.419769 362.102020,240.415375 300.537537,154.466370 
	C297.262634,149.894348 293.908112,148.141159 288.292328,148.194595 
	C258.634186,148.476868 228.971939,148.320267 199.311127,148.340622 
	C197.059662,148.342178 194.808319,148.536179 192.679672,148.635025 
	C190.682068,162.277649 191.303833,836.363831 193.181961,843.081909 
	C226.071823,843.081909 258.910645,843.081909 292.609253,843.081909 
	C292.609253,666.767029 292.609253,491.041321 292.609253,315.315643 
	C293.278503,315.031952 293.947784,314.748291 294.617035,314.464630 
	C361.227203,400.583160 425.269440,488.636047 489.427094,576.586365 
	C553.844116,664.892273 618.857849,752.783630 679.787720,843.164673 
	C714.278198,843.164673 748.495728,843.164673 783.666138,843.164673 
	C783.666138,740.106262 783.666138,637.553223 783.666138,533.000122 
M3255.216064,651.850769 
	C3249.564941,640.012207 3243.914062,628.173706 3238.928223,617.728882 
	C3249.224854,608.811768 3258.758057,601.119873 3267.606934,592.708252 
	C3274.331787,586.315735 3280.181885,579.003601 3286.429688,572.108582 
	C3294.018799,563.733826 3303.076904,556.257935 3308.858398,546.781860 
	C3316.913818,533.578369 3325.341309,520.536682 3330.432373,505.402252 
	C3340.516113,475.425293 3347.506836,444.942963 3349.441650,413.462433 
	C3350.334717,398.933899 3350.717529,384.225616 3347.531982,369.720917 
	C3344.689209,356.776215 3343.198242,343.486908 3339.652344,330.755890 
	C3334.681152,312.906464 3330.366211,294.424530 3322.133301,278.040985 
	C3310.404541,254.701477 3296.930908,231.998596 3277.351807,213.718567 
	C3268.078613,205.060547 3259.238281,196.201538 3247.423584,190.834778 
	C3236.529297,185.886200 3226.167480,179.748856 3215.213623,174.951569 
	C3196.776611,166.876953 3179.525635,156.403778 3158.999756,152.676819 
	C3143.878418,149.931152 3128.920166,147.700058 3113.659668,147.717865 
	C3018.350342,147.829071 2923.041260,148.100174 2827.731934,148.348831 
	C2825.180176,148.355484 2822.629395,148.708328 2820.313721,148.882065 
	C2820.313721,380.754089 2820.313721,611.901306 2820.313721,842.988953 
	C2840.579346,844.795715 2912.147705,844.115112 2919.901855,841.929077 
	C2919.901855,779.570190 2919.901855,717.025208 2919.901855,654.337524 
	C2931.440918,654.337524 2942.331543,654.337585 2953.222412,654.337585 
	C3005.552002,654.337585 3057.881836,654.349854 3110.211426,654.312927 
	C3114.197021,654.310120 3118.216553,654.222656 3122.161377,653.716125 
	C3131.290771,652.543823 3140.384033,651.090210 3149.812256,649.703552 
	C3181.479248,714.763062 3212.879883,779.275879 3243.910645,843.028076 
	C3279.384766,843.028076 3313.463867,843.028076 3348.804199,843.028076 
	C3317.498291,779.070007 3286.691895,716.132629 3255.216064,651.850769 
M948.338745,646.934509 
	C948.338745,481.053864 948.338745,315.173248 948.338745,148.903534 
	C914.696045,148.903534 881.922302,148.903534 848.868042,148.903534 
	C848.868042,380.579407 848.868042,611.675720 848.868042,843.223755 
	C883.948792,843.223755 918.495972,843.223755 953.478333,843.223755 
	C970.294373,816.328247 987.190125,789.255249 1004.137146,762.214417 
	C1020.910400,735.450684 1037.651489,708.666199 1054.561279,681.988831 
	C1071.507568,655.253662 1087.660034,627.997742 1105.882690,600.781006 
	C1172.374146,682.269470 1237.862183,762.528198 1303.537476,843.016479 
	C1341.335571,843.016479 1379.765503,843.016479 1419.585815,843.016479 
	C1412.218872,832.874878 1405.916504,823.606140 1399.019409,814.803284 
	C1363.160400,769.035583 1327.122437,723.408081 1291.199707,677.690186 
	C1254.662109,631.189819 1218.130127,584.684814 1181.736206,538.072083 
	C1175.469849,530.046204 1169.905151,521.472351 1164.830811,514.302307 
	C1178.641479,494.713257 1192.143799,476.591217 1204.553833,457.749847 
	C1232.359375,415.534698 1260.051758,373.232697 1287.000122,330.468201 
	C1323.508667,272.532440 1359.285034,214.135178 1395.330811,155.908279 
	C1396.611450,153.839828 1397.417847,151.477905 1398.721436,148.654785 
	C1360.593872,148.654785 1323.703857,148.654785 1286.695923,148.654785 
	C1280.670410,158.861099 1274.927246,168.979401 1268.818237,178.871857 
	C1236.855225,230.630646 1205.033691,282.479065 1172.710693,334.012665 
	C1139.497925,386.964752 1105.842896,439.640228 1072.223877,492.336365 
	C1056.124023,517.572144 1040.004639,542.807861 1023.276001,567.627014 
	C1001.715820,599.614441 979.568359,631.206726 957.571411,662.898193 
	C955.431030,665.981812 952.572327,668.566833 950.047058,671.383362 
	C949.477600,671.095093 948.908203,670.806885 948.338745,670.518677 
	C948.338745,663.312317 948.338745,656.106018 948.338745,646.934509 
M2557.000000,232.342178 
	C2614.239258,232.342178 2671.478516,232.342178 2729.088623,232.342178 
	C2729.088623,204.013641 2729.088623,176.571503 2729.088623,148.887726 
	C2566.060303,148.887726 2403.616455,148.887726 2240.856934,148.887726 
	C2240.856934,380.556183 2240.856934,611.657532 2240.856934,843.168335 
	C2410.495850,843.168335 2579.605225,843.168335 2749.156494,843.168335 
	C2749.156494,815.526794 2749.156494,788.397034 2749.156494,760.287842 
	C2613.213135,760.287842 2477.781494,760.287842 2342.301758,760.287842 
	C2342.301758,687.204590 2342.301758,615.103455 2342.301758,541.933594 
	C2460.662109,541.933594 2578.397461,541.933594 2695.853027,541.933594 
	C2695.853027,513.638306 2695.853027,486.417084 2695.853027,458.150513 
	C2577.625000,458.150513 2459.880371,458.150513 2342.418945,458.150513 
	C2342.418945,382.334442 2342.418945,307.574860 2342.418945,232.342178 
	C2413.776123,232.342178 2484.388184,232.342178 2557.000000,232.342178 
M4077.000000,843.677551 
	C4221.953613,843.572327 4366.907715,843.467468 4511.861328,843.336914 
	C4512.113770,843.336670 4512.374512,842.964783 4512.615234,842.747925 
	C4512.862793,842.525391 4513.089844,842.280396 4513.324707,842.044067 
	C4514.912109,813.117859 4514.188965,767.798035 4511.885254,760.203125 
	C4377.071777,760.203125 4242.118164,760.203247 4107.164551,760.194336 
	C4106.838867,760.194275 4106.500977,760.094360 4106.191406,759.979431 
	C4105.900879,759.871460 4105.606934,759.719727 4105.375488,759.517151 
	C4105.128906,759.301392 4104.955078,759.003296 4104.884766,758.914001 
	C4104.884766,686.902588 4104.884766,615.065125 4104.884766,542.252991 
	C4223.521484,542.252991 4341.617676,542.252991 4459.689453,542.252991 
	C4459.689453,513.826904 4459.689453,486.384094 4459.689453,457.905640 
	C4340.973145,457.905640 4222.902832,457.905640 4104.831055,457.905640 
	C4104.831055,382.351135 4104.831055,307.843903 4104.831055,232.340469 
	C4137.541504,232.340469 4169.770508,232.340469 4202.000000,232.340469 
	C4234.325195,232.340469 4266.649902,232.340469 4298.975098,232.340469 
	C4331.633301,232.340469 4364.292480,232.422867 4396.950195,232.317108 
	C4429.074219,232.213074 4461.212402,232.787964 4493.101562,231.962967 
	C4493.101562,203.515656 4493.101562,176.333878 4493.101562,148.865585 
	C4330.095215,148.865585 4167.658203,148.865585 4004.821289,148.865585 
	C4004.821289,380.500122 4004.821289,611.591553 4004.821289,843.677490 
	C4028.532959,843.677490 4051.766357,843.677490 4077.000000,843.677551 
M3516.113281,482.894836 
	C3545.219971,499.109009 3576.189697,511.078094 3607.572510,521.826416 
	C3640.848389,533.223083 3674.608154,543.198853 3708.012451,554.232849 
	C3719.312988,557.965637 3730.475098,562.415161 3741.158203,567.645020 
	C3755.170410,574.504700 3768.450195,582.850159 3782.398438,589.852783 
	C3802.564697,599.977173 3818.129150,614.983704 3830.644531,633.407166 
	C3832.841553,636.641541 3834.180664,640.482605 3835.749512,644.115417 
	C3841.069580,656.435242 3841.172607,669.358948 3839.618652,682.336853 
	C3836.371094,709.458923 3823.673096,730.563965 3798.924316,743.193420 
	C3787.999756,748.768372 3776.087402,752.458008 3765.340332,758.317871 
	C3752.627441,765.249573 3738.582031,767.740356 3725.106689,767.812256 
	C3693.949219,767.978577 3662.518066,771.819336 3631.587402,764.492371 
	C3630.316895,764.191345 3628.913086,764.499878 3627.604004,764.305725 
	C3614.239014,762.323608 3600.694824,761.108948 3587.561523,758.103210 
	C3563.888672,752.685547 3541.156982,744.310486 3519.007568,734.234192 
	C3496.012939,723.773438 3473.040039,713.322815 3452.314941,698.707275 
	C3448.061523,695.707764 3444.350342,692.912659 3439.798096,694.652466 
	C3432.440430,704.948792 3425.572998,714.655212 3418.600586,724.285461 
	C3413.163574,731.794739 3407.537109,739.166687 3402.103271,746.678101 
	C3397.089111,753.609802 3391.694092,760.369751 3389.682129,769.867981 
	C3413.832764,784.016052 3437.517090,798.750977 3461.995850,812.020081 
	C3494.863525,829.836609 3529.992188,842.049500 3566.523682,849.951538 
	C3584.626709,853.867371 3602.837402,857.465576 3621.153076,860.165710 
	C3637.799561,862.619812 3654.622070,864.330750 3671.426025,865.131165 
	C3686.650879,865.856323 3702.063477,865.965515 3717.196533,864.419250 
	C3733.910400,862.711548 3750.490479,859.238403 3766.964355,855.755737 
	C3786.690674,851.585510 3807.027832,849.501526 3825.350342,840.032043 
	C3836.528809,834.254700 3848.016602,829.017944 3858.881836,822.705383 
	C3875.662842,812.955505 3890.920654,801.245605 3901.831299,784.737427 
	C3902.191650,784.192383 3902.750244,783.775574 3903.228271,783.311401 
	C3922.542236,764.567322 3929.823486,739.793030 3935.278320,714.890259 
	C3940.027832,693.208374 3940.399658,670.742065 3939.635986,648.444275 
	C3939.534912,645.489319 3939.431641,642.417358 3938.586182,639.624634 
	C3934.258057,625.330811 3929.977051,611.009155 3925.054443,596.915649 
	C3923.125488,591.392822 3919.897461,586.222595 3916.668213,581.279297 
	C3912.127930,574.328491 3907.029541,567.742554 3902.179688,560.993530 
	C3895.732910,552.022461 3887.839355,544.585327 3879.122803,537.780273 
	C3857.457275,520.865723 3833.419922,508.166321 3808.448975,497.085571 
	C3792.993896,490.227570 3777.745117,482.614105 3761.747803,477.324097 
	C3718.583740,463.050659 3674.961426,450.280273 3632.412598,434.018799 
	C3602.694580,422.660889 3574.803711,408.405975 3548.416748,390.897797 
	C3547.073730,390.006744 3545.868896,388.789337 3544.872803,387.511078 
	C3535.476074,375.452606 3525.930908,363.500916 3516.868896,351.194000 
	C3512.082031,344.692932 3508.990967,337.450836 3510.809082,328.834381 
	C3514.164062,312.936707 3517.210449,296.973572 3520.349854,281.030762 
	C3521.206299,276.681427 3522.988281,273.171875 3526.660400,270.239838 
	C3533.662598,264.648682 3540.412842,258.699829 3546.895508,252.509949 
	C3558.169189,241.746262 3570.919189,234.578293 3586.442139,231.139328 
	C3601.961670,227.701065 3617.199463,223.244141 3633.193604,222.276260 
	C3642.426758,221.717529 3651.637695,219.759262 3660.832275,219.920303 
	C3668.678467,220.057678 3676.477295,222.385941 3684.314941,223.632385 
	C3703.944336,226.754242 3723.626953,229.564728 3743.208496,232.959595 
	C3766.671387,237.027390 3788.002441,247.102966 3809.502441,256.846619 
	C3828.220703,265.329803 3845.067871,276.646179 3862.206543,288.878967 
	C3862.983398,287.872253 3863.797607,286.816559 3864.612793,285.761780 
	C3879.230713,266.846954 3893.677979,247.796127 3908.588623,229.115173 
	C3912.210449,224.577209 3916.465576,220.935425 3913.323242,213.904114 
	C3887.750732,197.735718 3862.092529,180.507736 3833.461670,168.426865 
	C3818.171387,161.975021 3803.392578,153.999847 3787.660889,148.971695 
	C3759.566162,139.992203 3731.041016,132.160400 3701.152832,131.588333 
	C3698.546387,131.538437 3695.968994,130.563843 3693.355713,130.169083 
	C3687.490723,129.283142 3681.607910,127.768570 3675.738037,127.794670 
	C3656.507568,127.880142 3637.420410,127.863472 3618.120850,130.905304 
	C3603.537598,133.203781 3588.544678,134.496887 3574.024658,137.383331 
	C3545.894287,142.975357 3519.253174,153.117233 3494.661133,168.123474 
	C3487.299561,172.615662 3479.708008,176.980179 3473.163818,182.516434 
	C3453.172119,199.427887 3435.961670,218.358414 3428.280273,244.498047 
	C3423.890137,259.437805 3416.459229,273.540802 3412.692139,288.594757 
	C3405.318604,318.060211 3409.738770,347.640411 3417.743652,376.153076 
	C3426.611328,407.738983 3445.953613,433.266663 3471.881836,453.216125 
	C3485.538574,463.723877 3500.484131,472.556458 3516.113281,482.894836 
M1688.145020,424.863342 
	C1647.025879,332.723206 1605.906616,240.583054 1564.932739,148.768402 
	C1529.558472,148.768402 1495.387695,148.768402 1460.186401,148.768402 
	C1563.538940,380.419189 1668.821777,610.320984 1766.820435,843.393066 
	C1802.470581,843.393066 1838.083008,843.393066 1874.441772,843.393066 
	C1976.255859,612.083557 2078.086914,380.735229 2180.284668,148.554321 
	C2144.595703,148.554321 2110.641357,148.554321 2075.697998,148.554321 
	C2033.333862,244.207718 1990.294312,339.866425 1948.546021,436.085388 
	C1908.417480,528.571594 1824.040894,718.109802 1819.294800,723.472473 
	C1818.800415,722.595032 1818.254517,721.802795 1817.879883,720.936340 
	C1799.037231,677.357300 1780.390381,633.692505 1761.333984,590.207214 
	C1737.345215,535.466553 1713.022827,480.871979 1688.145020,424.863342 
M126.338615,369.000153 
	C126.224075,296.041687 126.110054,223.083237 125.974884,150.124802 
	C125.974388,149.856644 125.703133,149.557983 125.496391,149.329651 
	C125.275925,149.086182 124.981750,148.909470 124.946434,148.881714 
	C92.206741,148.881714 59.696571,148.881714 27.268906,148.881714 
	C25.173431,164.634277 25.932968,836.604370 27.922018,843.145142 
	C60.519424,843.145142 93.057266,843.145142 126.338623,843.145142 
	C126.338623,685.410645 126.338623,528.205444 126.338615,369.000153 
z"/>
<path fill="#010101" opacity="1.000000" stroke="none" 
	d="
M2.000000,900.911865 
	C4.991437,900.107178 7.982874,900.308167 10.974314,900.308228 
	C1512.381592,900.321350 3013.789062,900.320984 4515.196289,900.319702 
	C4516.195801,900.319702 4517.195801,900.303589 4519.097656,900.147522 
	C4520.000000,933.327515 4520.000000,966.655029 4520.000000,999.902771 
	C3014.000000,999.902771 1508.000000,999.902771 2.000000,999.902771 
	C2.000000,967.144958 2.000000,934.484375 2.000000,900.911865 
z"/>
<path fill="#000000" opacity="1.000000" stroke="none" 
	d="
M4513.065918,2.000000 
	C4513.887207,31.323927 4513.771973,60.647846 4513.662598,89.971786 
	C4513.648926,93.599762 4513.661133,97.227844 4513.661133,101.493111 
	C4511.083496,101.804062 4508.910645,102.142021 4506.725098,102.305199 
	C4505.067871,102.428909 4503.394043,102.330017 4501.727539,102.330017 
	C3005.100342,102.330032 1508.473145,102.330048 11.845899,102.328819 
	C9.179643,102.328819 6.513387,102.310394 2.923566,102.150284 
	C2.000000,68.672943 2.000000,35.345886 2.000000,2.000000 
	C1505.377319,2.000000 3008.754639,2.000000 4513.065918,2.000000 
z"/>
<path fill="#010101" opacity="1.000000" stroke="none" 
	d="
M783.666138,534.000183 
	C783.666138,637.553223 783.666138,740.106262 783.666138,843.164673 
	C748.495728,843.164673 714.278198,843.164673 679.787720,843.164673 
	C618.857849,752.783630 553.844116,664.892273 489.427094,576.586365 
	C425.269440,488.636047 361.227203,400.583160 294.617035,314.464630 
	C293.947784,314.748291 293.278503,315.031952 292.609253,315.315643 
	C292.609253,491.041321 292.609253,666.767029 292.609253,843.081909 
	C258.910645,843.081909 226.071823,843.081909 193.181961,843.081909 
	C191.303833,836.363831 190.682068,162.277649 192.679672,148.635025 
	C194.808319,148.536179 197.059662,148.342178 199.311127,148.340622 
	C228.971939,148.320267 258.634186,148.476868 288.292328,148.194595 
	C293.908112,148.141159 297.262634,149.894348 300.537537,154.466370 
	C362.102020,240.415375 423.592072,326.419769 485.621979,412.032715 
	C544.916504,493.870331 604.782410,575.294312 664.491638,656.830872 
	C669.880066,664.189148 675.960022,671.041016 683.421143,677.492310 
	C683.421143,501.465179 683.421143,325.438080 683.421143,148.870285 
	C717.159729,148.870285 749.938660,148.870285 783.666138,148.870285 
	C783.666138,277.235840 783.666138,405.117981 783.666138,534.000183 
z"/>
<path fill="#010101" opacity="1.000000" stroke="none" 
	d="
M3255.550781,652.523010 
	C3286.691895,716.132629 3317.498291,779.070007 3348.804199,843.028076 
	C3313.463867,843.028076 3279.384766,843.028076 3243.910645,843.028076 
	C3212.879883,779.275879 3181.479248,714.763062 3149.812256,649.703552 
	C3140.384033,651.090210 3131.290771,652.543823 3122.161377,653.716125 
	C3118.216553,654.222656 3114.197021,654.310120 3110.211426,654.312927 
	C3057.881836,654.349854 3005.552002,654.337585 2953.222412,654.337585 
	C2942.331543,654.337585 2931.440918,654.337524 2919.901855,654.337524 
	C2919.901855,717.025208 2919.901855,779.570190 2919.901855,841.929077 
	C2912.147705,844.115112 2840.579346,844.795715 2820.313721,842.988953 
	C2820.313721,611.901306 2820.313721,380.754089 2820.313721,148.882065 
	C2822.629395,148.708328 2825.180176,148.355484 2827.731934,148.348831 
	C2923.041260,148.100174 3018.350342,147.829071 3113.659668,147.717865 
	C3128.920166,147.700058 3143.878418,149.931152 3158.999756,152.676819 
	C3179.525635,156.403778 3196.776611,166.876953 3215.213623,174.951569 
	C3226.167480,179.748856 3236.529297,185.886200 3247.423584,190.834778 
	C3259.238281,196.201538 3268.078613,205.060547 3277.351807,213.718567 
	C3296.930908,231.998596 3310.404541,254.701477 3322.133301,278.040985 
	C3330.366211,294.424530 3334.681152,312.906464 3339.652344,330.755890 
	C3343.198242,343.486908 3344.689209,356.776215 3347.531982,369.720917 
	C3350.717529,384.225616 3350.334717,398.933899 3349.441650,413.462433 
	C3347.506836,444.942963 3340.516113,475.425293 3330.432373,505.402252 
	C3325.341309,520.536682 3316.913818,533.578369 3308.858398,546.781860 
	C3303.076904,556.257935 3294.018799,563.733826 3286.429688,572.108582 
	C3280.181885,579.003601 3274.331787,586.315735 3267.606934,592.708252 
	C3258.758057,601.119873 3249.224854,608.811768 3238.928223,617.728882 
	C3243.914062,628.173706 3249.564941,640.012207 3255.550781,652.523010 
M2931.272217,232.337250 
	C2927.698242,232.337250 2924.124268,232.337250 2920.223633,232.337250 
	C2920.223633,344.024933 2920.223633,454.759308 2920.223633,566.322449 
	C2924.346924,566.322449 2927.937256,566.322449 2931.527588,566.322449 
	C2981.833252,566.322449 3032.144287,565.891968 3082.441650,566.533936 
	C3102.616211,566.791443 3122.169434,565.196167 3141.122559,558.112671 
	C3142.987793,557.415466 3144.854004,556.618225 3146.792725,556.236755 
	C3164.009766,552.849121 3177.365967,542.240906 3191.179199,532.520752 
	C3193.017822,531.227112 3194.516602,529.356079 3195.921631,527.556152 
	C3206.346680,514.200684 3217.102295,501.078094 3226.970215,487.320221 
	C3235.538574,475.374969 3242.017578,462.086884 3244.168213,447.403320 
	C3246.180176,433.665039 3247.578613,419.763458 3248.052002,405.892975 
	C3248.571777,390.676697 3250.016357,375.248779 3245.299805,360.315308 
	C3241.300537,347.653595 3237.489258,334.909760 3232.840088,322.484802 
	C3230.197021,315.421326 3226.919922,308.246918 3222.364990,302.324860 
	C3214.706299,292.367096 3206.069336,283.107452 3197.302002,274.080566 
	C3193.218018,269.875885 3188.117432,266.476349 3183.030518,263.468201 
	C3174.173340,258.230408 3165.076904,253.364532 3155.875244,248.752441 
	C3149.109375,245.361359 3142.263916,241.683228 3135.021240,239.775238 
	C3114.776123,234.441910 3094.106934,231.622162 3073.090332,231.656631 
	C3030.447021,231.726593 2987.803955,231.660950 2945.160645,231.704849 
	C2941.179199,231.708954 2937.198486,232.095810 2931.272217,232.337250 
z"/>
<path fill="#020202" opacity="1.000000" stroke="none" 
	d="
M948.338745,647.917114 
	C948.338745,656.106018 948.338745,663.312317 948.338745,670.518677 
	C948.908203,670.806885 949.477600,671.095093 950.047058,671.383362 
	C952.572327,668.566833 955.431030,665.981812 957.571411,662.898193 
	C979.568359,631.206726 1001.715820,599.614441 1023.276001,567.627014 
	C1040.004639,542.807861 1056.124023,517.572144 1072.223877,492.336365 
	C1105.842896,439.640228 1139.497925,386.964752 1172.710693,334.012665 
	C1205.033691,282.479065 1236.855225,230.630646 1268.818237,178.871857 
	C1274.927246,168.979401 1280.670410,158.861099 1286.695923,148.654785 
	C1323.703857,148.654785 1360.593872,148.654785 1398.721436,148.654785 
	C1397.417847,151.477905 1396.611450,153.839828 1395.330811,155.908279 
	C1359.285034,214.135178 1323.508667,272.532440 1287.000122,330.468201 
	C1260.051758,373.232697 1232.359375,415.534698 1204.553833,457.749847 
	C1192.143799,476.591217 1178.641479,494.713257 1164.830811,514.302307 
	C1169.905151,521.472351 1175.469849,530.046204 1181.736206,538.072083 
	C1218.130127,584.684814 1254.662109,631.189819 1291.199707,677.690186 
	C1327.122437,723.408081 1363.160400,769.035583 1399.019409,814.803284 
	C1405.916504,823.606140 1412.218872,832.874878 1419.585815,843.016479 
	C1379.765503,843.016479 1341.335571,843.016479 1303.537476,843.016479 
	C1237.862183,762.528198 1172.374146,682.269470 1105.882690,600.781006 
	C1087.660034,627.997742 1071.507568,655.253662 1054.561279,681.988831 
	C1037.651489,708.666199 1020.910400,735.450684 1004.137146,762.214417 
	C987.190125,789.255249 970.294373,816.328247 953.478333,843.223755 
	C918.495972,843.223755 883.948792,843.223755 848.868042,843.223755 
	C848.868042,611.675720 848.868042,380.579407 848.868042,148.903534 
	C881.922302,148.903534 914.696045,148.903534 948.338745,148.903534 
	C948.338745,315.173248 948.338745,481.053864 948.338745,647.917114 
z"/>
<path fill="#020202" opacity="1.000000" stroke="none" 
	d="
M2556.000000,232.342178 
	C2484.388184,232.342178 2413.776123,232.342178 2342.418945,232.342178 
	C2342.418945,307.574860 2342.418945,382.334442 2342.418945,458.150513 
	C2459.880371,458.150513 2577.625000,458.150513 2695.853027,458.150513 
	C2695.853027,486.417084 2695.853027,513.638306 2695.853027,541.933594 
	C2578.397461,541.933594 2460.662109,541.933594 2342.301758,541.933594 
	C2342.301758,615.103455 2342.301758,687.204590 2342.301758,760.287842 
	C2477.781494,760.287842 2613.213135,760.287842 2749.156494,760.287842 
	C2749.156494,788.397034 2749.156494,815.526794 2749.156494,843.168335 
	C2579.605225,843.168335 2410.495850,843.168335 2240.856934,843.168335 
	C2240.856934,611.657532 2240.856934,380.556183 2240.856934,148.887726 
	C2403.616455,148.887726 2566.060303,148.887726 2729.088623,148.887726 
	C2729.088623,176.571503 2729.088623,204.013641 2729.088623,232.342178 
	C2671.478516,232.342178 2614.239258,232.342178 2556.000000,232.342178 
z"/>
<path fill="#020202" opacity="1.000000" stroke="none" 
	d="
M4076.000000,843.677490 
	C4051.766357,843.677490 4028.532959,843.677490 4004.821289,843.677490 
	C4004.821289,611.591553 4004.821289,380.500122 4004.821289,148.865585 
	C4167.658203,148.865585 4330.095215,148.865585 4493.101562,148.865585 
	C4493.101562,176.333878 4493.101562,203.515656 4493.101562,231.962967 
	C4461.212402,232.787964 4429.074219,232.213074 4396.950195,232.317108 
	C4364.292480,232.422867 4331.633301,232.340469 4298.975098,232.340469 
	C4266.649902,232.340469 4234.325195,232.340469 4202.000000,232.340469 
	C4169.770508,232.340469 4137.541504,232.340469 4104.831055,232.340469 
	C4104.831055,307.843903 4104.831055,382.351135 4104.831055,457.905640 
	C4222.902832,457.905640 4340.973145,457.905640 4459.689453,457.905640 
	C4459.689453,486.384094 4459.689453,513.826904 4459.689453,542.252991 
	C4341.617676,542.252991 4223.521484,542.252991 4104.884766,542.252991 
	C4104.884766,615.065125 4104.884766,686.902588 4104.884766,758.914001 
	C4104.955078,759.003296 4105.128906,759.301392 4105.375488,759.517151 
	C4105.606934,759.719727 4105.900879,759.871460 4106.191406,759.979431 
	C4106.500977,760.094360 4106.838867,760.194275 4107.164551,760.194336 
	C4242.118164,760.203247 4377.071777,760.203125 4511.885254,760.203125 
	C4514.188965,767.798035 4514.912109,813.117859 4513.325195,842.044556 
	C4513.089844,842.280396 4512.862793,842.525391 4512.615234,842.747925 
	C4512.374512,842.964783 4512.113770,843.336670 4511.861328,843.336914 
	C4366.907715,843.467468 4221.953613,843.572327 4076.000000,843.677490 
z"/>
<path fill="#020202" opacity="1.000000" stroke="none" 
	d="
M3515.480469,482.520111 
	C3500.484131,472.556458 3485.538574,463.723877 3471.881836,453.216125 
	C3445.953613,433.266663 3426.611328,407.738983 3417.743652,376.153076 
	C3409.738770,347.640411 3405.318604,318.060211 3412.692139,288.594757 
	C3416.459229,273.540802 3423.890137,259.437805 3428.280273,244.498047 
	C3435.961670,218.358414 3453.172119,199.427887 3473.163818,182.516434 
	C3479.708008,176.980179 3487.299561,172.615662 3494.661133,168.123474 
	C3519.253174,153.117233 3545.894287,142.975357 3574.024658,137.383331 
	C3588.544678,134.496887 3603.537598,133.203781 3618.120850,130.905304 
	C3637.420410,127.863472 3656.507568,127.880142 3675.738037,127.794670 
	C3681.607910,127.768570 3687.490723,129.283142 3693.355713,130.169083 
	C3695.968994,130.563843 3698.546387,131.538437 3701.152832,131.588333 
	C3731.041016,132.160400 3759.566162,139.992203 3787.660889,148.971695 
	C3803.392578,153.999847 3818.171387,161.975021 3833.461670,168.426865 
	C3862.092529,180.507736 3887.750732,197.735718 3913.323242,213.904114 
	C3916.465576,220.935425 3912.210449,224.577209 3908.588623,229.115173 
	C3893.677979,247.796127 3879.230713,266.846954 3864.612793,285.761780 
	C3863.797607,286.816559 3862.983398,287.872253 3862.206543,288.878967 
	C3845.067871,276.646179 3828.220703,265.329803 3809.502441,256.846619 
	C3788.002441,247.102966 3766.671387,237.027390 3743.208496,232.959595 
	C3723.626953,229.564728 3703.944336,226.754242 3684.314941,223.632385 
	C3676.477295,222.385941 3668.678467,220.057678 3660.832275,219.920303 
	C3651.637695,219.759262 3642.426758,221.717529 3633.193604,222.276260 
	C3617.199463,223.244141 3601.961670,227.701065 3586.442139,231.139328 
	C3570.919189,234.578293 3558.169189,241.746262 3546.895508,252.509949 
	C3540.412842,258.699829 3533.662598,264.648682 3526.660400,270.239838 
	C3522.988281,273.171875 3521.206299,276.681427 3520.349854,281.030762 
	C3517.210449,296.973572 3514.164062,312.936707 3510.809082,328.834381 
	C3508.990967,337.450836 3512.082031,344.692932 3516.868896,351.194000 
	C3525.930908,363.500916 3535.476074,375.452606 3544.872803,387.511078 
	C3545.868896,388.789337 3547.073730,390.006744 3548.416748,390.897797 
	C3574.803711,408.405975 3602.694580,422.660889 3632.412598,434.018799 
	C3674.961426,450.280273 3718.583740,463.050659 3761.747803,477.324097 
	C3777.745117,482.614105 3792.993896,490.227570 3808.448975,497.085571 
	C3833.419922,508.166321 3857.457275,520.865723 3879.122803,537.780273 
	C3887.839355,544.585327 3895.732910,552.022461 3902.179688,560.993530 
	C3907.029541,567.742554 3912.127930,574.328491 3916.668213,581.279297 
	C3919.897461,586.222595 3923.125488,591.392822 3925.054443,596.915649 
	C3929.977051,611.009155 3934.258057,625.330811 3938.586182,639.624634 
	C3939.431641,642.417358 3939.534912,645.489319 3939.635986,648.444275 
	C3940.399658,670.742065 3940.027832,693.208374 3935.278320,714.890259 
	C3929.823486,739.793030 3922.542236,764.567322 3903.228271,783.311401 
	C3902.750244,783.775574 3902.191650,784.192383 3901.831299,784.737427 
	C3890.920654,801.245605 3875.662842,812.955505 3858.881836,822.705383 
	C3848.016602,829.017944 3836.528809,834.254700 3825.350342,840.032043 
	C3807.027832,849.501526 3786.690674,851.585510 3766.964355,855.755737 
	C3750.490479,859.238403 3733.910400,862.711548 3717.196533,864.419250 
	C3702.063477,865.965515 3686.650879,865.856323 3671.426025,865.131165 
	C3654.622070,864.330750 3637.799561,862.619812 3621.153076,860.165710 
	C3602.837402,857.465576 3584.626709,853.867371 3566.523682,849.951538 
	C3529.992188,842.049500 3494.863525,829.836609 3461.995850,812.020081 
	C3437.517090,798.750977 3413.832764,784.016052 3389.682129,769.867981 
	C3391.694092,760.369751 3397.089111,753.609802 3402.103271,746.678101 
	C3407.537109,739.166687 3413.163574,731.794739 3418.600586,724.285461 
	C3425.572998,714.655212 3432.440430,704.948792 3439.798096,694.652466 
	C3444.350342,692.912659 3448.061523,695.707764 3452.314941,698.707275 
	C3473.040039,713.322815 3496.012939,723.773438 3519.007568,734.234192 
	C3541.156982,744.310486 3563.888672,752.685547 3587.561523,758.103210 
	C3600.694824,761.108948 3614.239014,762.323608 3627.604004,764.305725 
	C3628.913086,764.499878 3630.316895,764.191345 3631.587402,764.492371 
	C3662.518066,771.819336 3693.949219,767.978577 3725.106689,767.812256 
	C3738.582031,767.740356 3752.627441,765.249573 3765.340332,758.317871 
	C3776.087402,752.458008 3787.999756,748.768372 3798.924316,743.193420 
	C3823.673096,730.563965 3836.371094,709.458923 3839.618652,682.336853 
	C3841.172607,669.358948 3841.069580,656.435242 3835.749512,644.115417 
	C3834.180664,640.482605 3832.841553,636.641541 3830.644531,633.407166 
	C3818.129150,614.983704 3802.564697,599.977173 3782.398438,589.852783 
	C3768.450195,582.850159 3755.170410,574.504700 3741.158203,567.645020 
	C3730.475098,562.415161 3719.312988,557.965637 3708.012451,554.232849 
	C3674.608154,543.198853 3640.848389,533.223083 3607.572510,521.826416 
	C3576.189697,511.078094 3545.219971,499.109009 3515.480469,482.520111 
z"/>
<path fill="#020202" opacity="1.000000" stroke="none" 
	d="
M1688.494629,425.538879 
	C1713.022827,480.871979 1737.345215,535.466553 1761.333984,590.207214 
	C1780.390381,633.692505 1799.037231,677.357300 1817.879883,720.936340 
	C1818.254517,721.802795 1818.800415,722.595032 1819.294800,723.472473 
	C1824.040894,718.109802 1908.417480,528.571594 1948.546021,436.085388 
	C1990.294312,339.866425 2033.333862,244.207718 2075.697998,148.554321 
	C2110.641357,148.554321 2144.595703,148.554321 2180.284668,148.554321 
	C2078.086914,380.735229 1976.255859,612.083557 1874.441772,843.393066 
	C1838.083008,843.393066 1802.470581,843.393066 1766.820435,843.393066 
	C1668.821777,610.320984 1563.538940,380.419189 1460.186401,148.768402 
	C1495.387695,148.768402 1529.558472,148.768402 1564.932739,148.768402 
	C1605.906616,240.583054 1647.025879,332.723206 1688.494629,425.538879 
z"/>
<path fill="#020202" opacity="1.000000" stroke="none" 
	d="
M126.338623,370.000183 
	C126.338623,528.205444 126.338623,685.410645 126.338623,843.145142 
	C93.057266,843.145142 60.519424,843.145142 27.922018,843.145142 
	C25.932968,836.604370 25.173431,164.634277 27.268906,148.881714 
	C59.696571,148.881714 92.206741,148.881714 124.946434,148.881714 
	C124.981750,148.909470 125.275925,149.086182 125.496391,149.329651 
	C125.703133,149.557983 125.974388,149.856644 125.974884,150.124802 
	C126.110054,223.083237 126.224075,296.041687 126.338623,370.000183 
z"/>
<path fill="#FFFFFF" opacity="1.000000" stroke="none" 
	d="
M2932.244629,232.321106 
	C2937.198486,232.095810 2941.179199,231.708954 2945.160645,231.704849 
	C2987.803955,231.660950 3030.447021,231.726593 3073.090332,231.656631 
	C3094.106934,231.622162 3114.776123,234.441910 3135.021240,239.775238 
	C3142.263916,241.683228 3149.109375,245.361359 3155.875244,248.752441 
	C3165.076904,253.364532 3174.173340,258.230408 3183.030518,263.468201 
	C3188.117432,266.476349 3193.218018,269.875885 3197.302002,274.080566 
	C3206.069336,283.107452 3214.706299,292.367096 3222.364990,302.324860 
	C3226.919922,308.246918 3230.197021,315.421326 3232.840088,322.484802 
	C3237.489258,334.909760 3241.300537,347.653595 3245.299805,360.315308 
	C3250.016357,375.248779 3248.571777,390.676697 3248.052002,405.892975 
	C3247.578613,419.763458 3246.180176,433.665039 3244.168213,447.403320 
	C3242.017578,462.086884 3235.538574,475.374969 3226.970215,487.320221 
	C3217.102295,501.078094 3206.346680,514.200684 3195.921631,527.556152 
	C3194.516602,529.356079 3193.017822,531.227112 3191.179199,532.520752 
	C3177.365967,542.240906 3164.009766,552.849121 3146.792725,556.236755 
	C3144.854004,556.618225 3142.987793,557.415466 3141.122559,558.112671 
	C3122.169434,565.196167 3102.616211,566.791443 3082.441650,566.533936 
	C3032.144287,565.891968 2981.833252,566.322449 2931.527588,566.322449 
	C2927.937256,566.322449 2924.346924,566.322449 2920.223633,566.322449 
	C2920.223633,454.759308 2920.223633,344.024933 2920.223633,232.337250 
	C2924.124268,232.337250 2927.698242,232.337250 2932.244629,232.321106 
z"/>
</svg>